<?xml version="1.0" encoding="UTF-8"?> <svg xmlns="http://www.w3.org/2000/svg" viewBox="0 0 1922.83 820.61"><defs><style>.d{fill:#fefefd;}.d,.e,.f,.g,.h{stroke-miterlimit:10;}.d,.e,.g{stroke:#fbf9f6;}.e{fill:#fbf9f6;}.f,.g{fill:#e3ded9;}.f,.h{stroke:#e3ded9;}.h{fill:none;}</style></defs><g id="a"></g><g id="b"><g id="c"><g><path class="g" d="M427.63,253.09h723.87c135.07,0,224.93-33.34,284.65-79.14h.71s27.7,340.29-371.94,340.29H397.3S17.44,498.42,17.44,747.7v-233.45c0-27.18,1.98-52.14,5.56-75.2,48.72-199.65,404.63-185.96,404.63-185.96Z"></path><path class="g" d="M401.26,173.95H1436.16c-59.73,45.8-149.58,79.14-284.65,79.14H427.63S70.72,237.77,23,439.05C69.61,154.74,401.26,173.95,401.26,173.95Z"></path></g><g><path class="d" d="M410.69,237.57h723.87c135.07,0,224.93-33.34,284.65-79.14h.71s27.7,340.29-371.94,340.29H380.36S.5,482.89,.5,732.17v-233.45c0-27.18,1.98-52.14,5.56-75.2C54.78,223.87,410.69,237.57,410.69,237.57Z"></path><path class="e" d="M384.31,158.43H1419.21c-59.73,45.8-149.58,79.14-284.65,79.14H410.69S53.77,222.25,6.06,423.52C52.67,139.22,384.31,158.43,384.31,158.43Z"></path></g><g><circle class="f" cx="1397.74" cy="522.84" r="27.16"></circle><path class="h" d="M1397.74,549.99v270.62s.95-270.62-215.59-270.62"></path></g><path class="g" d="M1922.33,1.2l-52.77,52.43s-24.81,18.68-24.81,57.47,44.61,53.01,44.61,104.09-37.5,53.01-37.5,95.04,70.47,96.33,70.47,96.33V1.2Z"></path></g></g></svg> 