<?xml version="1.0" encoding="UTF-8"?> <svg xmlns="http://www.w3.org/2000/svg" viewBox="0 0 24.43 41.05"><defs><style>.d{fill:#fefefd;}.e{fill:#e3ded9;mix-blend-mode:multiply;}.f{isolation:isolate;}</style></defs><g class="f"><g id="a"></g><g id="b"><g id="c"><g><polygon class="e" points="11.39 25.21 5.36 19.17 0 19.17 6.02 25.21 11.39 25.21"></polygon><path class="e" d="M11.92,19.19l-.12,15.81H5.24l6.02,6.05h6.56l.12-15.81h5.34c.3-2.09,.58-4.17,.88-6.33l-5.79-5.82c.03-.06,.07-.13,.11-.18,.02-.03,.03-.05,.05-.08,.03-.04,.07-.07,.11-.11,.08-.09,.17-.18,.27-.25,.05-.04,.1-.07,.16-.1,.1-.06,.2-.11,.31-.15,.06-.02,.12-.05,.18-.07,.12-.04,.24-.07,.37-.09,.06-.01,.11-.03,.17-.04,.19-.03,.39-.05,.6-.06,.46-.02,.93-.02,1.39-.02,.62,0,1.24,0,1.86,0h.45l.04-5.64L18.41,.27l-.04,5.64h-.45c-.62,0-1.24,0-1.86,0-.46,0-.93,0-1.39,.02-.21,0-.41,.03-.6,.06-.06,0-.11,.02-.17,.04-.13,.03-.25,.06-.37,.09-.06,.02-.12,.04-.18,.07-.11,.04-.21,.1-.31,.15-.05,.03-.11,.06-.16,.1-.1,.07-.19,.16-.27,.25-.03,.03-.06,.05-.09,.08,0,.01-.01,.02-.02,.03-.02,.02-.04,.05-.05,.08-.04,.05-.08,.11-.11,.17-.02,.04-.04,.1-.07,.14-.01,.03-.03,.06-.04,.09,0,.02-.02,.04-.03,.06-.04,.11-.08,.24-.11,.37,0,0,0,.02,0,.03-.01,.05-.01,.11-.02,.16-.02,.11-.04,.22-.05,.34,0,.05,0,.11,0,.16-.05,1.34-.08,4.31-.08,4.47l5.46,5.48c-.04,.28-.08,.57-.12,.85h-5.34Z"></path><path class="d" d="M13.81,0c.94,0,1.88,.05,2.81,.09,.61,.02,1.22,.11,1.79,.17l-.04,5.64h-.45c-.62,0-1.24,0-1.86,0-.46,0-.93,0-1.39,.02-1.49,.05-2.59,.61-2.67,2.48-.05,1.34-.08,4.31-.08,4.47,.08,0,1.55,0,3.04,0,.74,0,1.47,0,1.97,0h1.21c-.3,2.16-.58,4.24-.88,6.33h-5.34l-.12,15.81H5.24l.12-15.84H0l.05-6.3H5.44v-.47c.01-1.27,0-2.54,.05-3.81,.02-.8,.06-1.62,.2-2.41,.36-1.93,1.26-3.55,2.87-4.7C9.97,.47,11.58,.04,13.28,0c.17,0,.35,0,.52,0Z"></path></g></g></g></g></svg> 