<?xml version="1.0" encoding="UTF-8"?> <svg xmlns="http://www.w3.org/2000/svg" viewBox="0 0 34.29 34.37"><defs><style>.d{fill:#fefefd;}.e{fill:#e3ded9;mix-blend-mode:multiply;}.f{isolation:isolate;}</style></defs><g class="f"><g id="a"></g><g id="b"><g id="c"><g><path class="e" d="M21.89,23.88c.03-.3,.07-.6,.13-.89,.03-.14,.06-.28,.1-.41,.03-.1,.05-.2,.09-.29,.07-.22,.16-.43,.27-.63v-.02c.12-.19,.25-.37,.4-.53,.06-.06,.12-.12,.18-.18,.11-.11,.24-.2,.38-.29,.08-.05,.15-.1,.24-.14,.16-.08,.33-.14,.52-.19,.09-.03,.17-.06,.26-.08,.29-.06,.6-.1,.95-.1,.47,0,.87,.07,1.21,.2,.34,.13,.61,.31,.84,.53h0l-6.02-6.05c-.24-.24-.55-.43-.92-.56l-4.86-4.88-.02,2.59,2.34,2.35c-.11,.04-.22,.08-.32,.13-.08,.04-.16,.09-.24,.14-.14,.09-.26,.18-.38,.29-.06,.06-.13,.11-.18,.18-.03,.03-.07,.06-.09,.09-.11,.14-.21,.28-.3,.44h0v.02c-.09,.15-.17,.31-.23,.48-.02,.05-.03,.1-.04,.14-.03,.09-.06,.19-.09,.29-.02,.08-.05,.16-.07,.25-.01,.05-.01,.11-.02,.16-.06,.29-.1,.58-.13,.89,0,.04-.01,.08-.02,.12,0,.02,0,.03,0,.05-.02,.32-.03,.64-.04,.96l-.07,9.36h-3.5l.1-12.88-2.6-2.61c.14-.01,.28-.02,.41-.05,.08-.02,.15-.05,.23-.07,.16-.05,.31-.09,.45-.16,.08-.04,.16-.09,.24-.13,.13-.07,.25-.15,.37-.23,.08-.06,.15-.12,.22-.18,.11-.09,.21-.19,.3-.3,.03-.04,.08-.07,.11-.11,.03-.04,.06-.09,.09-.13,.05-.07,.1-.15,.15-.23,.03-.05,.07-.09,.09-.14,.04-.07,.07-.15,.1-.22,.03-.05,.05-.1,.07-.16,.01-.03,.03-.05,.04-.08,.06-.15,.1-.3,.14-.46v-.03s.01-.07,.02-.1c.02-.12,.05-.24,.06-.37,0-.08,0-.16,.01-.24,0-.12,0-.23-.01-.35,0-.04-.02-.08-.03-.12-.03-.24-.08-.46-.16-.68-.01-.03-.01-.07-.03-.11,0-.01-.01-.02-.02-.03-.1-.25-.23-.48-.38-.7-.01-.02-.02-.04-.03-.06-.1-.13-.21-.26-.32-.38L5.83,.99c.13,.13,.25,.28,.35,.43,.15,.22,.29,.45,.38,.7,.02,.04,.03,.09,.04,.14,.08,.22,.13,.45,.16,.68,.02,.15,.04,.31,.04,.47,0,.21-.03,.41-.07,.61,0,.03,0,.06-.01,.09-.04,.2-.1,.38-.18,.56-.02,.05-.05,.11-.07,.16-.06,.12-.12,.24-.2,.36-.05,.08-.1,.15-.15,.22-.06,.09-.13,.17-.2,.24-.09,.1-.19,.2-.3,.3-.07,.06-.14,.12-.22,.18-.12,.09-.24,.16-.37,.23-.08,.04-.16,.09-.24,.13-.15,.07-.3,.12-.45,.16-.08,.02-.15,.05-.23,.07-.24,.05-.48,.08-.74,.08-.94,0-1.78-.38-2.4-1l5.31,5.33-.13,17.16H.28l6.02,6.05h5.88l.03-3.67,3.65,3.67h5.89l.07-9.36c0-.32,.01-.64,.04-.96,0-.06,.01-.12,.02-.17Z"></path><path class="e" d="M34.21,21.59c0-.05-.02-.1-.02-.15-.04-.42-.1-.82-.17-1.21-.02-.09-.03-.19-.05-.28-.09-.43-.21-.83-.35-1.21-.01-.03-.02-.06-.03-.09-.05-.12-.11-.23-.16-.35-.05-.1-.09-.21-.14-.31-.08-.16-.18-.32-.28-.47-.05-.08-.09-.16-.15-.24,0-.01-.01-.02-.02-.04-.15-.21-.32-.4-.5-.59l-6.02-6.05c.19,.19,.36,.4,.52,.62,.05,.08,.1,.16,.15,.24,.1,.15,.2,.31,.28,.47,.05,.1,.09,.21,.14,.31,.06,.14,.13,.29,.18,.44,.14,.38,.26,.79,.35,1.21,.02,.09,.03,.19,.05,.28,.07,.39,.13,.79,.17,1.21,0,.07,.02,.14,.02,.21,.07,.74,.09,1.52,.08,2.33l-.08,10.38h-5.87l6.02,6.05h5.87l.08-10.38c0-.81-.02-1.59-.08-2.33,0-.02,0-.04,0-.06Z"></path><path class="d" d="M3.44,0c1.89,0,3.4,1.53,3.38,3.41-.01,1.88-1.54,3.41-3.44,3.41S-.01,5.29,0,3.41,1.56,0,3.44,0Z"></path><polygon class="d" points="6.31 9.39 6.17 28.32 .28 28.32 .43 9.39 6.31 9.39"></polygon><path class="d" d="M21.28,8.93c5.96,0,7.02,3.91,6.99,9.01l-.08,10.38h-5.87l.07-9.19c.02-2.2-.01-5.03-3.02-5.03s-3.54,2.39-3.56,4.86l-.07,9.36h-5.89l.14-18.92h5.64l-.02,2.59h.09c.8-1.48,2.72-3.05,5.58-3.05Z"></path></g></g></g></g></svg> 