<?xml version="1.0" encoding="UTF-8"?> <svg xmlns="http://www.w3.org/2000/svg" id="Layer_1" width="4.91in" height="4.85in" viewBox="0 0 353.64 348.94"><defs><style>.cls-1,.cls-2{fill:#f3f1ee;}.cls-3,.cls-4,.cls-5{fill:#003d37;}.cls-6,.cls-7,.cls-8{fill:#002e29;}.cls-9,.cls-10{fill:#fff;}.cls-11,.cls-12{fill:#bd9280;}.cls-13,.cls-14{fill:#0c2522;}.cls-4{opacity:.8;}.cls-4,.cls-7,.cls-15,.cls-14{isolation:isolate;}.cls-7,.cls-15,.cls-14,.cls-16{opacity:.36;}.cls-15{fill:#191b27;}.cls-5,.cls-8,.cls-17,.cls-10,.cls-12,.cls-18,.cls-2,.cls-19,.cls-20,.cls-21{stroke-miterlimit:10;}.cls-5,.cls-17,.cls-10,.cls-12,.cls-18,.cls-2,.cls-20{stroke:#003d37;}.cls-8{stroke:#002e29;}.cls-17{fill:#00d08a;}.cls-18{fill:#ba5b44;}.cls-19{stroke:#0c2522;}.cls-19,.cls-20,.cls-21{fill:none;}.cls-21{stroke:#bd9280;}</style></defs><g id="white_lines"><rect class="cls-13" x="208.42" y="121.12" width="35.66" height="2.02"></rect><rect class="cls-6" x="147.94" y="121.12" width="76.63" height="2.02"></rect><path class="cls-6" d="M275.14,123.14h-16.9l-11.21-46.57h14.8l15.57,43.34h0c.45,1.26-.2,2.64-1.46,3.09-.26,.09-.53,.14-.81,.14Z"></path><path class="cls-6" d="M271.65,123.14h-13.4l-11.22-46.57h11.31l15.57,43.34h0c.45,1.25-.2,2.64-1.46,3.08-.26,.09-.54,.14-.81,.14Z"></path><path class="cls-6" d="M318.47,106.23h-18.4V26.09h18.38c.95,0,1.72,.77,1.72,1.71V104.52c.01,.95-.75,1.72-1.7,1.72Z"></path><polygon class="cls-14" points="253.73 104.36 271.82 104.35 273.4 108.74 254.79 108.74 253.73 104.36"></polygon><path class="cls-3" d="M313.58,106.24l-117.96,.02c-1.62,0-2.94-1.31-2.94-2.93h0l-.02-74.28c0-1.62,1.31-2.94,2.94-2.94l117.96-.03c1.62,0,2.94,1.31,2.94,2.94l.02,74.27c0,1.62-1.31,2.94-2.93,2.94h0Z"></path><path class="cls-13" d="M260.07,119.91h16.76c.4,0,.72,.32,.72,.72v2.35c0,.09-.07,.16-.16,.16h-17.33c-.09,0-.16-.07-.16-.16v-2.91c0-.09,.07-.16,.16-.16h0Z"></path><rect class="cls-13" x="249.9" y="119.91" width="17.5" height="3.23" rx=".13" ry=".13"></rect><path class="cls-15" d="M312.62,28.55V98.65c.01,.08-.05,.15-.14,.15h0l-116.16,.02c-.08,0-.15-.07-.15-.15h0V28.57c-.01-.08,.05-.15,.14-.15h0l116.16-.02c.08,0,.15,.07,.15,.15h0Z"></path><rect class="cls-7" x="196.17" y="28.41" width="116.45" height="4.45"></rect><circle class="cls-11" cx="310.12" cy="30.64" r="1.39"></circle><path class="cls-11" d="M307.14,30.64c0,.77-.62,1.39-1.39,1.39s-1.39-.62-1.39-1.39,.62-1.39,1.39-1.39h0c.77,0,1.39,.62,1.39,1.39h0Z"></path><path class="cls-11" d="M302.76,30.64c0,.77-.62,1.39-1.39,1.39s-1.39-.62-1.39-1.39,.62-1.39,1.39-1.39h0c.77,0,1.39,.62,1.39,1.39h0Z"></path><rect class="cls-12" x=".5" y="123.14" width="233.1" height="11.44"></rect><rect class="cls-12" x="233.61" y="123.14" width="119.54" height="11.44"></rect><rect class="cls-12" x="236.39" y="134.59" width="12.76" height="213.85"></rect><rect class="cls-12" x="333.08" y="134.59" width="12.76" height="213.85"></rect><rect class="cls-12" x="80.22" y="134.59" width="12.76" height="213.85"></rect><rect class="cls-18" x="236.39" y="134.59" width="12.76" height="12.56"></rect><rect class="cls-18" x="333.08" y="134.59" width="12.76" height="12.56"></rect><g class="cls-16"><rect class="cls-3" x="80.22" y="134.59" width="12.76" height="12.56"></rect></g></g><g id="Layer_26_copy"><polygon class="cls-12" points="138.58 257.07 137.17 275.39 114.95 273.29 117.79 252.68 138.58 257.07"></polygon><polygon class="cls-3" points="138.52 257.78 116.62 261.17 117.17 257.2 138.52 257.78"></polygon><path class="cls-10" d="M115.53,269.23l-2.2,1.01s-6.17,10.85-6.17,21.9h66.23l-3.45-7.02-32-20.03,10.08-4.81-10.76-.66-6.51,7.84-7.31,6.51-7.89-4.74Z"></path><line class="cls-20" x1="171.18" y1="287.68" x2="107.24" y2="287.68"></line><polygon class="cls-2" points="170.15 173.4 142.71 257.92 111.2 257.07 132.25 173.4 170.15 173.4"></polygon><line class="cls-19" x1="130.38" y1="253.33" x2="148.43" y2="184.73"></line><path class="cls-12" d="M250.36,258.21c4.02,8.64,6.03,14.86,6.03,14.86l-20.45,8.92-7.5-19.42,21.92-4.35Z"></path><polygon class="cls-3" points="250.36 258.21 232.32 272.62 231.03 269.29 250.36 258.21"></polygon><path class="cls-10" d="M232.9,274.12l-2.2,1.01s-4.12,10.85-4.12,21.9h64.17l-3.46-7.02-32-20.03,10.08-4.81-10.77-.66-6.51,7.84-7.3,6.51-7.89-4.73Z"></path><line class="cls-20" x1="226.75" y1="292.92" x2="288.01" y2="292.92"></line><path class="cls-9" d="M85.52,48.25c-9.57,1.28-22.33,7.11-29.28,34.39-6.94,27.28-6.31,38.42,10.41,38.42l18.87-72.82Z"></path><path class="cls-12" d="M176.2,105.16s16.52,2.81,22.11,5.74c5.59,2.93,14.31,10.16,14.31,10.16h-39.62l3.19-15.91Z"></path><polygon class="cls-8" points="176.2 105.16 176.2 121.06 173 121.06 176.2 105.16"></polygon><line class="cls-20" x1="168.47" y1="173.4" x2="180.73" y2="173.4"></line><path class="cls-21" d="M134.75,155.66l41.13,1.6c7.93,.31,14.99,5.08,18.24,12.32l39.64,88.41"></path><path class="cls-17" d="M98.67,123.11h8.08c3.36-8.17,6.22-16.54,8.57-25.05,2.92,3.82,6.06,7.47,9.39,10.94,13.48,13.95,48.29,11.96,48.29,11.96l3.64-18c-18.01-.21-31.23-11.52-42.84-32.2-11.61-20.69-21.91-22.97-26.33-22.97h-8.45c-10.65,0-31.44-3.65-34.42,28-.28,2.99-.5,5.84-.67,8.55h23.62l11.12,38.79Z"></path><path class="cls-2" d="M206.89,155.66c-5.23-11.91-16.88-14.83-37.95-16.76-15.52-1.42-56.72-4.6-56.72-4.6l-5.47-11.19h-8.08l14.28,49.81,60.05,.48,45.87,102.63,31.48-18.06s-38.23-90.4-43.46-102.32Z"></path><path class="cls-4" d="M58.31,165.09c-2.61-9.02,7.19-41.98,7.19-41.98,0,0-3.17-12.86-1.55-38.78H8.07l17.83,91.03c.88,4.51,4.47,8,9.01,8.75l.04,.15H116.21l-3.25-11.35-42.63-.34s-9.4,1.54-12.01-7.49Z"></path><path class="cls-17" d="M65.49,123.11h33.18l-11.12-38.78h-23.62c-1.61,25.92,1.56,38.78,1.56,38.78Z"></path><path class="cls-6" d="M65.49,123.11h33.18l-11.12-38.78h-23.62c-1.61,25.92,1.56,38.78,1.56,38.78Z"></path><path class="cls-1" d="M65.49,123.11s-9.79,32.95-7.19,41.98,12.01,7.49,12.01,7.49l42.63,.34-14.27-49.81h-33.18Z"></path><path class="cls-5" d="M65.49,123.11s-9.79,32.95-7.19,41.98,12.01,7.49,12.01,7.49l42.63,.34-14.27-49.81h-33.18Z"></path><path class="cls-13" d="M87.55,84.33l17.83,91.03c1.01,5.17,5.55,8.91,10.82,8.91h39.15c0-6.45-5.23-11.69-11.69-11.69h-21.32c-5.14,0-9.6-3.56-10.75-8.57l-16.9-73.99c-.76-3.33-3.73-5.7-7.15-5.7h0Z"></path><path class="cls-20" d="M44.23,296.8l15.01-107.07c.44-3.13,3.12-5.46,6.28-5.46h60.7c3.1,0,5.75,2.24,6.26,5.31l17.82,107.22"></path><line class="cls-20" x1="51.69" y1="243.61" x2="141.26" y2="243.61"></line><path class="cls-20" d="M88.22,296.8l15.01-107.07c.44-3.13,3.12-5.46,6.28-5.46h60.7c3.1,0,5.75,2.24,6.26,5.31l17.82,107.23"></path><line class="cls-20" x1="95.68" y1="243.61" x2="185.26" y2="243.61"></line><path class="cls-5" d="M101.98,77.87s-.89,21.9,9.34,33.12l3.99-12.87-13.33-20.25Z"></path><path class="cls-3" d="M96.42,44.16l1.46-9.13c.06-.36,.25-.69,.53-.92,.33-.3,.79-.43,1.23-.36,1.17,.19,2.78,.24,3.83-.66,.25-.23,.46-.5,.61-.81,1.39-2.78-3.29-3.3-3.54-6.45-.14-1.76,.25-3.11,1.26-3.95,.53-.43,1.16-.73,1.83-.86,.98-.21,2-.03,2.85,.51,.55,.32,1.29,.13,1.84-.28,.11-.13,.2-.29,.25-.46,.29-.95,.78-1.36,1.2-1.54,.3-.12,.63-.15,.95-.08,6.87-.58,9.53-8.28,9.53-8.28,.11,.06,.21,.16,.27,.27,.04-.12,.09-.24,.14-.36,2.58-7.19-2.64-7.63-2.64-7.63,0,0-17.26-2.64-20.89-3.13s-12.51,1.88-19.51,24.08c-7.01,22.2-17.26,7.06-22.01,27.45-1.25,5.37-7.62,7.7-4.65,15.67,.22,.58,.78,.97,1.4,.97h41.29c.66,0,1.24-.43,1.43-1.06l1.67-21.14,.05-.09c-.14,0-.28,0-.4,.02-.08-.59-.07-1.2,.02-1.79Z"></path><path class="cls-12" d="M124.87,25.52c-1.39-2.5-3.44-6.31-3.44-6.89,0-.67,.15-4.21-.45-6.3-.1-.4-.25-.79-.45-1.15-.07-.11-.16-.21-.27-.27,0,0-2.66,7.7-9.53,8.28-.32-.07-.65-.04-.95,.08-.43,.18-.91,.6-1.2,1.54-.05,.17-.14,.32-.25,.46-.55,.41-1.29,.6-1.84,.28-.85-.53-1.87-.72-2.85-.51-.67,.13-1.3,.43-1.83,.86-1.01,.85-1.4,2.19-1.26,3.95,.26,3.15,4.93,3.67,3.54,6.45-.15,.3-.36,.58-.61,.81-1.05,.9-2.66,.85-3.83,.66-.44-.08-.9,.06-1.23,.36-.28,.23-.47,.56-.53,.92l-1.46,9.13c-.15,.94-.07,3.56-.07,3.56,.12,0,2.14,.06,2.29,.06,2.61-.1,5.44,0,9.98,.05,.72,.02,1.43,.13,2.11,.34l-.12-2.32-.14-5.32c-.02-.83,.63-1.51,1.46-1.53,.05,0,.1,0,.15,0l3.16,.24c.09,0,.18,0,.26,0,.83-.09,5-.75,5.68-5.3,.39-2.59,.71-4.16,.93-5.07,.16-.67,.76-1.14,1.45-1.14,.82,0,1.49-.67,1.5-1.49,0-.25-.06-.5-.19-.72Z"></path><path class="cls-19" d="M134.75,155.88l41.13,1.6c7.93,.31,15,5.08,18.24,12.32l39.64,88.41"></path></g></svg> 