<?xml version="1.0" encoding="UTF-8"?> <svg xmlns="http://www.w3.org/2000/svg" id="Layer_1" width="2.81in" height="2.78in" viewBox="0 0 202.42 200.38"><defs><style>.cls-1{fill:#003d37;}.cls-2{fill:#f5f1ee;}.cls-3{fill:#fbf9f6;}</style></defs><g><path class="cls-3" d="M14.59,171.6c-7.82,0-14.18-6.36-14.18-14.18s6.36-14.18,14.18-14.18H88.96v28.37H14.59Z"></path><path class="cls-1" d="M88.96,172.01H14.59c-8.05,0-14.59-6.55-14.59-14.59s6.55-14.59,14.59-14.59H88.96c.23,0,.41,.18,.41,.41v28.37c0,.23-.18,.41-.41,.41ZM14.59,143.64c-7.6,0-13.77,6.18-13.77,13.78s6.18,13.78,13.77,13.78H88.55v-27.55H14.59Z"></path></g><g><path class="cls-2" d="M159.74,167.1v-19.36h2.25c1.24,0,2.25-1.01,2.25-2.25s-1.01-2.25-2.25-2.25H78.05c-7.63,0-14.2,5.85-14.58,13.47-.4,8.14,6.11,14.9,14.17,14.9h84.35c1.24,0,2.25-1.01,2.25-2.25s-1.01-2.25-2.25-2.25h-2.25Z"></path><path class="cls-1" d="M161.99,172.01H77.64c-4.03,0-7.78-1.61-10.57-4.54-2.78-2.92-4.21-6.76-4.01-10.79,.38-7.77,6.97-13.86,14.99-13.86h83.94c1.47,0,2.66,1.19,2.66,2.66s-1.19,2.66-2.66,2.66h-1.84v18.54h1.84c1.47,0,2.66,1.19,2.66,2.66s-1.19,2.66-2.66,2.66Zm-83.94-28.37c-7.58,0-13.81,5.75-14.17,13.08-.19,3.81,1.16,7.43,3.78,10.19,2.63,2.76,6.17,4.28,9.98,4.28h84.35c1.02,0,1.84-.83,1.84-1.84s-.83-1.84-1.84-1.84h-2.25c-.23,0-.41-.18-.41-.41v-19.36c0-.23,.18-.41,.41-.41h2.25c1.02,0,1.84-.83,1.84-1.84s-.83-1.84-1.84-1.84H78.05Z"></path></g><g><path class="cls-3" d="M77.64,167.1h82.1v-19.36H77.64c-5.35,0-9.68,4.33-9.68,9.68s4.33,9.68,9.68,9.68Z"></path><path class="cls-1" d="M159.74,167.51H77.64c-5.56,0-10.09-4.53-10.09-10.09s4.53-10.09,10.09-10.09h82.1c.23,0,.41,.18,.41,.41v19.36c0,.23-.18,.41-.41,.41Zm-82.1-19.36c-5.11,0-9.27,4.16-9.27,9.27s4.16,9.27,9.27,9.27h81.69v-18.54H77.64Z"></path></g><g><path class="cls-3" d="M158.46,97.24c7.82,0,14.18-6.36,14.18-14.18s-6.36-14.18-14.18-14.18H71.86v28.37h86.6Z"></path><path class="cls-1" d="M158.46,97.65H71.86c-.23,0-.41-.18-.41-.41v-28.37c0-.23,.18-.41,.41-.41h86.6c8.05,0,14.59,6.55,14.59,14.59s-6.55,14.59-14.59,14.59Zm-86.19-.82h86.19c7.6,0,13.77-6.18,13.77-13.78s-6.18-13.78-13.77-13.78H72.27v27.55Z"></path></g><g><path class="cls-2" d="M13.32,92.74v-19.36h-2.25c-1.24,0-2.25-1.01-2.25-2.25s1.01-2.25,2.25-2.25H82.77c7.63,0,14.2,5.85,14.58,13.47,.4,8.14-6.11,14.9-14.17,14.9H11.07c-1.24,0-2.25-1.01-2.25-2.25s1.01-2.25,2.25-2.25h2.25Z"></path><path class="cls-1" d="M83.18,97.65H11.07c-1.47,0-2.66-1.19-2.66-2.66s1.19-2.66,2.66-2.66h1.84v-18.54h-1.84c-1.47,0-2.66-1.19-2.66-2.66s1.19-2.66,2.66-2.66H82.77c8.02,0,14.6,6.09,14.99,13.86,.2,4.03-1.22,7.87-4.01,10.79-2.79,2.93-6.54,4.54-10.57,4.54Zm-72.11-4.5c-1.02,0-1.84,.83-1.84,1.84s.83,1.84,1.84,1.84H83.18c3.8,0,7.35-1.52,9.98-4.29,2.63-2.76,3.97-6.38,3.78-10.19-.36-7.33-6.59-13.08-14.17-13.08H11.07c-1.02,0-1.84,.83-1.84,1.84s.83,1.84,1.84,1.84h2.25c.23,0,.41,.18,.41,.41v19.36c0,.23-.18,.41-.41,.41h-2.25Z"></path></g><g><path class="cls-3" d="M83.18,92.74H13.32v-19.36H83.18c5.35,0,9.68,4.33,9.68,9.68s-4.33,9.68-9.68,9.68Z"></path><path class="cls-1" d="M83.18,93.15H13.32c-.23,0-.41-.18-.41-.41v-19.36c0-.23,.18-.41,.41-.41H83.18c5.56,0,10.09,4.53,10.09,10.09s-4.53,10.09-10.09,10.09Zm-69.45-.82H83.18c5.11,0,9.27-4.16,9.27-9.27s-4.16-9.27-9.27-9.27H13.73v18.54Z"></path></g><g><path class="cls-3" d="M177.07,199.97c7.82,0,14.18-6.36,14.18-14.18s-6.36-14.18-14.18-14.18H90.47v28.37h86.6Z"></path><path class="cls-1" d="M177.07,200.38H90.47c-.23,0-.41-.18-.41-.41v-28.37c0-.23,.18-.41,.41-.41h86.6c8.05,0,14.59,6.55,14.59,14.59s-6.55,14.59-14.59,14.59Zm-86.19-.82h86.19c7.6,0,13.78-6.18,13.78-13.78s-6.18-13.78-13.78-13.78H90.88v27.55Z"></path></g><g><path class="cls-2" d="M31.93,195.47v-19.36h-2.25c-1.24,0-2.25-1.01-2.25-2.25s1.01-2.25,2.25-2.25H101.38c7.63,0,14.2,5.85,14.58,13.47,.4,8.14-6.11,14.9-14.17,14.9H29.68c-1.24,0-2.25-1.01-2.25-2.25s1.01-2.25,2.25-2.25h2.25Z"></path><path class="cls-1" d="M101.79,200.38H29.68c-1.47,0-2.66-1.19-2.66-2.66s1.19-2.66,2.66-2.66h1.84v-18.54h-1.84c-1.47,0-2.66-1.19-2.66-2.66s1.19-2.66,2.66-2.66H101.38c8.02,0,14.6,6.09,14.99,13.86,.2,4.03-1.22,7.87-4.01,10.79-2.79,2.93-6.54,4.54-10.57,4.54Zm-72.11-4.5c-1.02,0-1.84,.83-1.84,1.84s.83,1.84,1.84,1.84H101.79c3.8,0,7.35-1.52,9.98-4.29,2.63-2.76,3.97-6.38,3.78-10.19-.36-7.33-6.59-13.08-14.17-13.08H29.68c-1.02,0-1.84,.83-1.84,1.84s.83,1.84,1.84,1.84h2.25c.23,0,.41,.18,.41,.41v19.36c0,.23-.18,.41-.41,.41h-2.25Z"></path></g><g><path class="cls-3" d="M101.79,195.47H31.93v-19.36H101.79c5.35,0,9.68,4.33,9.68,9.68s-4.33,9.68-9.68,9.68Z"></path><path class="cls-1" d="M101.79,195.88H31.93c-.23,0-.41-.18-.41-.41v-19.36c0-.23,.18-.41,.41-.41H101.79c5.56,0,10.09,4.53,10.09,10.09s-4.53,10.09-10.09,10.09Zm-69.45-.82H101.79c5.11,0,9.27-4.16,9.27-9.27s-4.16-9.27-9.27-9.27H32.34v18.54Z"></path></g><g><polygon class="cls-1" points="55.09 193.77 49.64 190.59 44.19 193.77 44.19 180.77 55.09 180.77 55.09 193.77"></polygon><path class="cls-1" d="M55.09,194.18c-.07,0-.14-.02-.21-.06l-5.24-3.06-5.24,3.06c-.13,.07-.28,.07-.41,0-.13-.07-.21-.21-.21-.35v-13c0-.23,.18-.41,.41-.41h10.89c.23,0,.41,.18,.41,.41v13c0,.15-.08,.28-.21,.35-.06,.04-.13,.05-.2,.05Zm-5.45-4c.07,0,.14,.02,.21,.06l4.83,2.82v-11.87h-10.07v11.87l4.83-2.82c.06-.04,.14-.06,.21-.06Z"></path></g><g><path class="cls-3" d="M150.61,143.23H70.42c-7.99,0-14.46-6.48-14.46-14.46s6.48-14.46,14.46-14.46h80.18v28.93Z"></path><path class="cls-1" d="M150.61,143.64H70.42c-8.2,0-14.87-6.67-14.87-14.87s6.67-14.87,14.87-14.87h80.18c.23,0,.41,.18,.41,.41v28.93c0,.23-.18,.41-.41,.41Zm-80.18-28.93c-7.75,0-14.06,6.31-14.06,14.06s6.31,14.06,14.06,14.06h79.77v-28.11H70.42Z"></path></g><g><path class="cls-2" d="M181.71,139.63v-21.72h4.02c.99,0,1.8-.81,1.8-1.8s-.81-1.8-1.8-1.8H107.76c-7.79,0-14.49,5.99-14.86,13.77-.39,8.31,6.23,15.16,14.45,15.16h78.38c.99,0,1.8-.81,1.8-1.8s-.81-1.8-1.8-1.8h-4.02Z"></path><path class="cls-1" d="M185.73,143.64H107.35c-4.11,0-7.93-1.64-10.76-4.61-2.83-2.97-4.29-6.87-4.09-10.98,.37-7.94,7.08-14.16,15.27-14.16h77.97c1.22,0,2.21,.99,2.21,2.21s-.99,2.21-2.21,2.21h-3.61v20.91h3.61c1.22,0,2.21,.99,2.21,2.21s-.99,2.21-2.21,2.21Zm-77.97-28.93c-7.75,0-14.09,5.88-14.45,13.38-.18,3.89,1.19,7.57,3.87,10.38,2.68,2.81,6.29,4.35,10.17,4.35h78.38c.77,0,1.39-.62,1.39-1.39s-.62-1.39-1.39-1.39h-4.02c-.23,0-.41-.18-.41-.41v-21.72c0-.23,.18-.41,.41-.41h4.02c.77,0,1.39-.62,1.39-1.39s-.62-1.39-1.39-1.39H107.76Z"></path></g><g><path class="cls-3" d="M181.71,117.91H107.35c-5.99,0-10.86,4.87-10.86,10.86s4.87,10.86,10.86,10.86h74.36v-21.72Z"></path><path class="cls-1" d="M181.71,140.04H107.35c-6.22,0-11.27-5.06-11.27-11.27s5.06-11.27,11.27-11.27h74.36c.23,0,.41,.18,.41,.41v21.72c0,.23-.18,.41-.41,.41Zm-74.36-21.72c-5.76,0-10.45,4.69-10.45,10.45s4.69,10.45,10.45,10.45h73.95v-20.91H107.35Z"></path></g><g><path class="cls-3" d="M123.79,68.97H55.84c-7.99,0-14.46-6.48-14.46-14.46s6.48-14.46,14.46-14.46H123.79v28.93Z"></path><path class="cls-1" d="M123.79,69.38H55.84c-8.2,0-14.87-6.67-14.87-14.87s6.67-14.87,14.87-14.87H123.79c.23,0,.41,.18,.41,.41v28.93c0,.23-.18,.41-.41,.41ZM55.84,40.45c-7.75,0-14.06,6.31-14.06,14.06s6.31,14.06,14.06,14.06H123.38v-28.11H55.84Z"></path></g><g><path class="cls-2" d="M167.13,65.36v-21.72h4.02c.99,0,1.8-.81,1.8-1.8s-.81-1.8-1.8-1.8H93.17c-7.79,0-14.49,5.99-14.86,13.77-.39,8.31,6.23,15.16,14.45,15.16h78.38c.99,0,1.8-.81,1.8-1.8s-.81-1.8-1.8-1.8h-4.02Z"></path><path class="cls-1" d="M171.15,69.38H92.76c-4.11,0-7.93-1.64-10.76-4.61-2.83-2.97-4.29-6.87-4.09-10.98,.37-7.94,7.08-14.16,15.27-14.16h77.97c1.22,0,2.21,.99,2.21,2.21s-.99,2.21-2.21,2.21h-3.61v20.91h3.61c1.22,0,2.21,.99,2.21,2.21s-.99,2.21-2.21,2.21Zm-77.97-28.93c-7.75,0-14.09,5.88-14.45,13.38-.18,3.89,1.19,7.57,3.87,10.38,2.68,2.81,6.29,4.35,10.17,4.35h78.38c.77,0,1.39-.62,1.39-1.39s-.62-1.39-1.39-1.39h-4.02c-.23,0-.41-.18-.41-.41v-21.72c0-.23,.18-.41,.41-.41h4.02c.77,0,1.39-.62,1.39-1.39s-.62-1.39-1.39-1.39H93.17Z"></path></g><g><path class="cls-3" d="M167.13,43.64H92.77c-5.99,0-10.86,4.87-10.86,10.86s4.87,10.86,10.86,10.86h74.36v-21.72Z"></path><path class="cls-1" d="M167.13,65.77H92.77c-6.22,0-11.27-5.06-11.27-11.27s5.06-11.27,11.27-11.27h74.36c.23,0,.41,.18,.41,.41v21.72c0,.23-.18,.41-.41,.41Zm-74.36-21.72c-5.76,0-10.45,4.69-10.45,10.45s4.69,10.45,10.45,10.45h73.95v-20.91H92.77Z"></path></g><g><path class="cls-3" d="M193.43,97.24H75.79v3.6h3.6v9.95h-3.6v3.6h117.64c4.74,0,8.58-3.84,8.58-8.58s-3.84-8.58-8.58-8.58Z"></path><path class="cls-1" d="M193.43,114.81H75.79c-.23,0-.41-.18-.41-.41v-3.6c0-.23,.18-.41,.41-.41h3.19v-9.13h-3.19c-.23,0-.41-.18-.41-.41v-3.6c0-.23,.18-.41,.41-.41h117.64c4.96,0,8.99,4.03,8.99,8.99s-4.03,8.99-8.99,8.99Zm-117.23-.82h117.23c4.5,0,8.17-3.66,8.17-8.17s-3.66-8.17-8.17-8.17H76.2v2.78h3.19c.23,0,.41,.18,.41,.41v9.95c0,.23-.18,.41-.41,.41h-3.19v2.78Z"></path></g><g><path class="cls-2" d="M157.05,97.24H41.56c-.99,0-1.8,.81-1.8,1.8s.81,1.8,1.8,1.8h1.8v9.95h-1.8c-.99,0-1.8,.81-1.8,1.8s.81,1.8,1.8,1.8h115.84c4.83,0,8.72-3.98,8.57-8.84-.14-4.7-4.24-8.31-8.93-8.31Z"></path><path class="cls-1" d="M157.41,114.81H41.56c-1.22,0-2.21-.99-2.21-2.21s.99-2.21,2.21-2.21h1.39v-9.13h-1.39c-1.22,0-2.21-.99-2.21-2.21s.99-2.21,2.21-2.21h115.48c5.01,0,9.2,3.91,9.34,8.71,.07,2.46-.83,4.78-2.53,6.54-1.71,1.76-4,2.73-6.45,2.73Zm-115.84-3.6c-.77,0-1.39,.62-1.39,1.39s.62,1.39,1.39,1.39h115.84c2.23,0,4.31-.88,5.86-2.48,1.55-1.6,2.37-3.71,2.3-5.94-.13-4.37-3.96-7.92-8.53-7.92H41.56c-.77,0-1.39,.62-1.39,1.39s.62,1.39,1.39,1.39h1.8c.23,0,.41,.18,.41,.41v9.95c0,.23-.18,.41-.41,.41h-1.8Z"></path></g><g><path class="cls-3" d="M43.37,110.8v-9.95h114.04c2.74,0,4.98,2.23,4.98,4.98s-2.23,4.98-4.98,4.98H43.37Z"></path><path class="cls-1" d="M157.41,111.21H43.37c-.23,0-.41-.18-.41-.41v-9.95c0-.23,.18-.41,.41-.41h114.04c2.97,0,5.38,2.42,5.38,5.38s-2.42,5.39-5.38,5.39Zm-113.63-.82h113.63c2.52,0,4.57-2.05,4.57-4.57s-2.05-4.57-4.57-4.57H43.77v9.13Z"></path></g><g><path class="cls-3" d="M168.72,.41H90.59c-.99,0-1.8,.81-1.8,1.8s.81,1.8,1.8,1.8h1.8V36.44h-1.8c-.99,0-1.8,.81-1.8,1.8s.81,1.8,1.8,1.8h78.13c4.89,0,8.86-3.97,8.86-8.86V9.27c0-4.89-3.97-8.86-8.86-8.86Z"></path><path class="cls-1" d="M168.72,40.45H90.59c-1.22,0-2.21-.99-2.21-2.21s.99-2.21,2.21-2.21h1.39V4.42h-1.39c-1.22,0-2.21-.99-2.21-2.21s.99-2.21,2.21-2.21h78.13c5.11,0,9.27,4.16,9.27,9.27V31.18c0,5.11-4.16,9.27-9.27,9.27Zm-78.13-3.6c-.77,0-1.39,.62-1.39,1.39s.62,1.39,1.39,1.39h78.13c4.66,0,8.45-3.79,8.45-8.45V9.27c0-4.66-3.79-8.45-8.45-8.45H90.59c-.77,0-1.39,.62-1.39,1.39s.62,1.39,1.39,1.39h1.8c.23,0,.41,.18,.41,.41V36.44c0,.23-.18,.41-.41,.41h-1.8Z"></path></g><g><path class="cls-2" d="M93.44,.41H27.54c-.99,0-1.8,.81-1.8,1.8s.81,1.8,1.8,1.8h1.8V36.44h-1.8c-.99,0-1.8,.81-1.8,1.8s.81,1.8,1.8,1.8H93.44c4.89,0,8.86-3.97,8.86-8.86V9.27c0-4.89-3.97-8.86-8.86-8.86Z"></path><path class="cls-1" d="M93.44,40.45H27.54c-1.22,0-2.21-.99-2.21-2.21s.99-2.21,2.21-2.21h1.39V4.42h-1.39c-1.22,0-2.21-.99-2.21-2.21s.99-2.21,2.21-2.21H93.44c5.11,0,9.27,4.16,9.27,9.27V31.18c0,5.11-4.16,9.27-9.27,9.27Zm-65.9-3.6c-.77,0-1.39,.62-1.39,1.39s.62,1.39,1.39,1.39H93.44c4.66,0,8.45-3.79,8.45-8.45V9.27c0-4.66-3.79-8.45-8.45-8.45H27.54c-.77,0-1.39,.62-1.39,1.39s.62,1.39,1.39,1.39h1.8c.23,0,.41,.18,.41,.41V36.44c0,.23-.18,.41-.41,.41h-1.8Z"></path></g><g><path class="cls-3" d="M29.34,36.44V4.01h56.51c14.26,0,12.84,.92,12.84,12.84v6.75c0,12.83,.04,12.83-12.83,12.83H29.34Z"></path><path class="cls-1" d="M93.44,36.84H29.35c-.23,0-.41-.18-.41-.41V4.01c0-.23,.18-.41,.41-.41H93.44c3.12,0,5.66,2.54,5.66,5.66V31.18c0,3.12-2.54,5.66-5.66,5.66Zm-63.69-.82h63.69c2.67,0,4.84-2.17,4.84-4.84V9.27c0-2.67-2.17-4.84-4.84-4.84H29.75v31.6Z"></path></g><g><polygon class="cls-1" points="83.64 31.92 78.16 28.72 72.67 31.92 72.67 8.53 83.64 8.53 83.64 31.92"></polygon><path class="cls-1" d="M72.67,32.33c-.07,0-.14-.02-.2-.05-.13-.07-.21-.21-.21-.35V8.53c0-.23,.18-.41,.41-.41h10.97c.23,0,.41,.18,.41,.41V31.92c0,.15-.08,.28-.21,.35-.13,.07-.28,.07-.41,0l-5.28-3.08-5.28,3.08c-.06,.04-.14,.06-.21,.06Zm5.48-4.02c.07,0,.14,.02,.21,.06l4.87,2.84V8.94h-10.15V31.21l4.87-2.84c.06-.04,.14-.06,.21-.06Z"></path></g></svg> 